<svg version="1" xmlns="http://www.w3.org/2000/svg" width="960" height="960" viewBox="0 0 720.000000 720.000000"><path d="M8 99.1c-1.3.6-2.8 1.5-3.2 2.2C4 102.6 3.7 209 4.5 209c.3 0 3-1.9 6-4.3l5.5-4.2V111h109.1l7-5.7c3.8-3.1 6.9-6.1 6.9-6.5 0-1.2-128-.9-131 .3zM619 98.6c0 .3 1.9 3.3 4.3 6.5l4.2 5.8 38.3.1H704v80h12v-44.3c0-43.9 0-44.4-2.1-46.3-2-1.8-4.5-1.9-48.5-2.2-25.5-.1-46.4 0-46.4.4z"/><path d="M565 122c-33.3 2.1-162.6 10-287.5 17.5-124.9 7.6-227.3 14-227.6 14.4-.4.3 2.2 43.7 5.8 96.5 3.5 52.7 6.2 96 6.1 96.1-.2.2-6.8.8-14.7 1.4-7.9.6-14.5 1.2-14.7 1.3-.1.2 2.4 32.3 5.7 71.3 3.3 39.1 6.2 77.4 6.6 85.3l.6 14.4 14.2-.7 14.1-.8 1.9 30.2c1 16.5 2.1 30.5 2.5 31 .3.6 66.7-3 180.5-9.9 99-6 230.2-13.9 291.5-17.6 61.3-3.7 111.6-6.8 111.8-6.9.1-.1-.4-10-1.3-22-.8-12-1.5-23.3-1.5-25.2V495h12.5c10.3 0 12.7-.3 13.1-1.5.4-.9-5.3-39.4-12.5-85.8-7.2-46.3-13.3-87.1-13.6-90.7-.3-3.6-.8-8.5-1.1-10.9l-.6-4.3-5.3.4-5.4.5-.6-6.1c-.8-8.4-11.5-171.7-11.5-175.5 0-3.8 8.1-3.9-69 .9zm5 89.6c0 .3-14.9 22.4-33.1 49.2-18.3 26.8-33.2 49.2-33.2 49.7 0 .6 19.2 26.8 42.7 58.4 23.5 31.5 42.6 57.5 42.4 57.6-.4.5-76.7 6.5-81.6 6.5h-3.8L480 401c-12.9-17.6-23.7-32-24.1-32-.4 0-4.4 5.3-8.9 11.7l-8.2 11.7 1.8 22.3c.9 13 1.3 22.8.8 23.2-1.1 1-69.5 6.3-70.3 5.5-.5-.5-3.4-35.3-14.2-173.1-1.8-22.7-3-41.5-2.7-41.8.2-.3 16.2-1.8 35.4-3.3 31.3-2.5 35-2.7 35.6-1.3.3.9 1.8 18 3.3 38.1 1.5 20.1 3 37.5 3.3 38.8.6 1.8 5.5-5.2 28.2-40.6l27.4-42.8 38.1-3.1c42.5-3.4 44.5-3.5 44.5-2.7zm-239.9 21.1c0 1.6.8 12.9 1.8 25.2l1.8 22.5-42.5 54c-23.4 29.8-43.6 55.4-44.9 57-1.3 1.6-2.2 3-2 3.2.3.3 84.7-6.1 93-7.1 2.6-.3 4.7-.4 4.7-.3.6 6 4.7 58.4 4.6 58.5-.3.3-201 16.2-201.2 16-.1-.1-1-11.4-2.1-25.1l-2-25 44.8-57c24.6-31.4 44.6-57.2 44.5-57.4-.2-.1-20.9 1.4-46 3.4s-46.2 3.4-46.9 3.1c-.9-.3-1.9-8.6-3.5-28.7-1.2-15.6-1.9-28.6-1.6-28.9.5-.5 184.7-15.7 194.2-16 2.8-.1 3.2.2 3.3 2.6zm20.2 293.5c-.5.7-5.2 6.8-10.3 13.6-5.4 7.1-10.2 12.5-11.5 12.8-1.2.3-4.2.4-6.8.2l-4.6-.3 5.9-7.5c3.3-4.1 5.9-7.8 6-8.1 0-.4-1.2-.9-2.7-1.2-1.6-.3-4.8-2.6-7.3-5.1l-4.4-4.6h6c5.4 0 6.3.3 9 3.1l2.9 3 2-2.4c3-3.6 5.5-4.6 11.4-4.7 4.1 0 5.1.3 4.4 1.2zm30.9 6.6c.1 2.8 0 5.2-.3 5.2-.7 0-1.9-6.2-1.9-10 0-4.6 1.8-.6 2.2 4.8zm3.8-3.1c0 2.1.3 4.9.6 6.3.5 1.7.3 2.2-.4 1.5-1.2-1.2-2.1-11.5-.9-11.5.4 0 .7 1.7.7 3.7zm-17.5 0c-1 1.6-2.4 3.7-3.2 4.8-1.9 2.9-1.6 3.8 1.2 3.3 1.3-.3 2.2-.1 1.9.3-.3.5-2.3.9-4.5.9h-4l3.1-4.4c3.2-4.7 3.9-7.1 1.7-6.3-.8.3-2 .1-2.8-.4-.9-.6.2-.9 3.5-.9h4.8l-1.7 2.7zm27 3.4c.7 3 .1 4.8-1.1 3.6-.4-.3-.6-1.7-.6-3.1 0-1.5-.7-2.7-1.7-2.9-1.1-.3-.9-.5.6-.6 1.6-.1 2.3.6 2.8 3zm-17.7 1.7c.2 1.8-.1 3.2-.7 3.2s-1-.3-1-.8c.1-.4 0-.9-.1-1.2-.7-1.9-.5-5 .4-4.7.6.2 1.2 1.8 1.4 3.5zm13.9-.1c-.4.3-.2 1.2.4 2 .9 1 .8 1.3-.5 1.3-.9 0-1.6-.6-1.6-1.3 0-1.4.9-2.7 1.8-2.7.3 0 .2.3-.1.7zm-18 1c-.4.3-.2 1.2.4 2 .9 1 .8 1.3-.5 1.3-.9 0-1.6-.6-1.6-1.3 0-1.4.9-2.7 1.8-2.7.3 0 .2.3-.1.7zm-21.6 9c-.5 1-2.1 3-3.6 4.5-2.3 2.5-3.3 2.8-8.6 2.8h-6l2.7-3.6c3.3-4.3 5.4-5.3 11.7-5.3 4.3-.1 4.7.1 3.8 1.6z"/><path d="M704 570v39H346.5l-24.8 5.7-24.7 5.8 207.7.3c192.1.2 207.8.1 209.5-1.5 1.7-1.5 1.8-4.2 1.8-45V531h-12v39z"/></svg>